<svg xmlns="http://www.w3.org/2000/svg" x="0px" y="0px" version="1.1" viewBox="0 0 700 700" fill="currentColor" stroke-width="2.04317">
  <path d="m189.69372,526.89666c18.76368,-27.08837 30.23282,-62.29224 35.07718,-107.60982 1.91548,-17.85384 -0.94974,-33.71234 -8.02108,-45.97139 0.74224,-0.49481 1.54833,-0.97367 2.27466,-1.47651 20.99769,-14.39006 33.16068,-37.83956 44.94163,-60.51264 11.92375,-22.97752 23.18593,-44.68622 42.11591,-54.65487 5.59483,-2.94502 7.74179,-9.86464 4.79675,-15.45945 -2.93705,-5.59483 -9.88057,-7.72566 -15.45148,-4.78879 -4.43757,2.33841 -8.41215,5.18781 -12.17915,8.22847 -0.2155,-0.0559 -0.37511,-0.2155 -0.59859,-0.2554 -47.01749,-9.88854 -78.27802,24.02362 -108.55989,56.85741 -22.62609,24.55893 -46.03472,49.93717 -74.886372,54.5997 -6.24924,1.01359 -10.479219,6.87976 -9.47357,13.12105 0.90187,5.61873 5.76236,9.61721 11.285262,9.61721 0.60656,0 1.22112,-0.0479 1.83567,-0.14366 36.67291,-5.9299 62.80304,-34.27013 88.07095,-61.6793 24.30354,-26.34671 45.82019,-49.53058 73.00256,-51.03844 -7.66987,10.91013 -14.03087,23.06538 -20.25622,35.06083 -10.95018,21.09372 -21.29395,41.031 -37.56782,52.17242 -13.06506,8.94685 -28.18147,17.25521 -46.23495,25.39663 -5.75439,2.59381 -8.32428,9.37775 -5.73047,15.13215 1.90747,4.23795 6.08169,6.7441 10.44733,6.7441 1.5643,0 3.1606,-0.32722 4.69297,-1.01359 10.11208,-4.55731 19.35436,-9.19428 27.94244,-13.96693 5.81834,10.45532 5.65059,23.77641 4.81269,31.61402 -4.42163,41.41509 -14.60542,73.14761 -31.14205,97.00983 -15.92244,22.97752 -39.32289,43.58496 -71.535552,63.00326 -5.41113,3.26438 -7.1511,10.28779 -3.88673,15.70691 2.14696,3.56757 5.929902,5.53883 9.808862,5.53883 2.01127,0 4.04651,-0.53474 5.89804,-1.64412 35.0302,-21.13459 60.70469,-43.89552 78.51911,-69.58841z"/>
  <path d="m558.17989,545.26479c-23.10624,-15.74673 -38.0459,-33.10553 -45.66898,-53.07549 -15.92244,-41.70117 -30.43918,-89.60334 -19.89704,-131.74377 15.8585,9.24207 29.17039,17.8937 36.03545,29.41759 2.14696,3.59149 5.94602,5.58684 9.84073,5.58684 1.98732,0 4.01442,-0.51878 5.84225,-1.61218 5.42707,-3.23229 7.20688,-10.2557 3.97458,-15.69095 C 537.30889,359.68636 517.4754,348.3063 496.49406,336.25362 482.19983,328.04906 467.41972,319.56499 454.1534,308.27238 422.64359,281.4639 398.02949,235.6049 397.78226,235.1411 c -2.96893,-5.57889 -9.89671,-7.70971 -15.47539,-4.72484 -5.57888,2.96894 -7.70174,9.88854 -4.72484,15.46743 1.06948,2.03519 26.84933,50.13741 61.73447,79.81858 10.58302,9.00263 21.93141,16.32148 32.81743,22.81815 -15.20407,49.96987 1.01359,104.75347 18.97923,151.81793 9.35385,24.47722 27.06387,45.35639 54.16042,63.81647 17.43073,11.88391 21.40633,16.45715 17.28708,30.76813 -1.48448,5.15575 -4.08635,10.34357 -7.74178,15.41962 -36.37869,50.53584 -128.3848,55.44557 -189.25704,58.68605 l -7.00746,0.37511 c -66.82605,3.64746 -161.84175,1.55633 -214.24708,-58.60636 -4.15827,-4.77265 -11.39702,-5.25955 -16.14576,-1.10938 -4.75671,4.15008 -5.25955,11.37311 -1.10938,16.13779 48.96462,56.21176 127.61043,67.56771 193.91751,67.56771 13.58382,0 26.6491,-0.47089 38.82845,-1.1413 l 6.9756,-0.37509 c 65.23031,-3.47974 163.82975,-8.73926 206.60561,-68.16637 5.19579,-7.21486 8.94683,-14.77317 11.16552,-22.45856 9.16241,-31.7652 -10.535,-45.19702 -26.36918,-55.98702z"/>
  <path d="m93.603308,162.10862c38.660912,24.40571 45.564782,25.06156 77.242132,24.90831 8.07688,-0.0719 18.09332,-0.14366 31.27894,0.28732 47.704,1.54037 78.35159,13.90318 87.16174,17.94151 3.15261,4.278 6.51261,8.11691 10.16009,11.3012 2.17088,1.89153 4.85254,2.81733 7.51826,2.81733 3.18449,0 6.361,-1.33284 8.62771,-3.91881 4.14212,-4.76467 3.65544,-11.98769 -1.10938,-16.14576 -2.56194,-2.23482 -4.93243,-5.10793 -7.22303,-8.26055 -0.43896,-0.80609 -0.90188,-1.55633 -1.54037,-2.2428 -7.03934,-10.51906 -12.78575,-24.94917 -17.42275,-41.15971 0.11178,-0.19952 0.27137,-0.34318 0.36715,-0.55069 2.37048,-4.92446 4.91628,-9.84074 7.47842,-14.79706 5.61075,-10.81451 11.39701,-22.00497 15.63496,-33.736872 8.65959,-24.031793 3.93475,-49.777822 -0.2474,-72.508118 L 310.588,20.896145 c -1.12533,-6.209398 -7.01544,-10.383396 -13.29657,-9.226138 -6.2094,1.117377 -10.34355,7.071219 -9.22614,13.288582 l 0.95773,5.219703 c 3.83095,20.846487 7.7896,42.395837 1.22909,60.600492 -2.65775,7.358702 -6.24925,14.789106 -9.96843,22.156176 -5.99385,-32.314829 -8.70739,-64.878906 -9.34588,-82.66065 -0.21549,-6.321159 -6.00182,-11.053968 -11.8361,-11.029857 -6.31299,0.231456 -11.25339,5.522898 -11.02985,11.836093 0.39903,11.285275 3.91879,89.803574 25.27608,144.084554 -12.20326,-3.55166 -27.98126,-7.06326 -47.11965,-9.11439 -0.11965,-0.0877 -0.18357,-0.21551 -0.31126,-0.3033 C 168.30978,129.3769 161.10146,52.774264 161.02994,51.999897 c -0.53473,-6.289084 -6.20142,-11.013918 -12.35486,-10.43142 -6.28908,0.53475 -10.95814,6.041669 -10.44734,12.338925 0.1676,1.995292 2.67369,29.06006 16.33741,60.018208 -16.06609,-3.26437 -32.59474,-15.275986 -38.71609,-20.815838 -4.68498,-4.229996 -11.92375,-3.886731 -16.153732,0.806087 -4.24591,4.677027 -3.90287,11.891881 0.774182,16.137791 1.34084,1.22113 30.87031,27.71769 61.87748,27.71769 1.54835,0 3.09664,-0.19954 4.64496,-0.3432 5.76236,9.20224 12.76185,18.23695 21.0222,26.68792 -6.60844,-0.0639 -12.37877,-0.0318 -17.34307,0.008 -27.75854,0.19952 -30.6394,0.23144 -64.83803,-21.37363 -5.33943,-3.36796 -12.410652,-1.76383 -15.786792,3.56759 -3.383899,5.34738 -1.787772,12.41063 3.55961,15.78677z"/>
  <path d="m267.10952,230.24843c6.1375,0.6385 11.92375,-3.86283 12.6023,-10.14394 0.6784,-6.28908 -3.86283,-11.92375 -10.14395,-12.6023 -22.49941,-2.4183 -44.43082,2.19479 -65.55723,13.63983 -0.18356,0.008 -0.51079,0 -0.78214,0 -48.39051,0 -109.787852,-30.75997 -110.419182,-31.06237 -5.618735,-2.8492 -12.506482,-0.5906 -15.371619,5.04419 -2.849207,5.63467 -0.5906,12.51443 5.036015,15.3716 2.266689,1.1413 46.833606,23.44133 92.755946,31.00719 -3.39207,2.96894 -6.768,6.00183 -10.10409,9.35385 -0.89389,0.90189 -1.73192,1.61219 -2.60975,2.46612 -0.0559,0.008 -0.0958,-0.016 -0.15163,-0.008 -37.60665,5.21173 -84.368744,-20.78314 -84.832542,-21.03854 -5.498995,-3.1046 -12.482554,-1.14929 -15.58716,4.3497 -3.096631,5.50698 -1.165242,12.4746 4.349711,15.5792 1.67603,0.95775 33.105529,18.43637 68.270581,23.36163 -15.91448,9.6732 -33.30577,15.58717 -58.972101,23.16958 -6.065781,1.78777 -9.521606,8.15675 -7.733826,14.21436 1.476531,4.98022 6.025731,8.20455 10.974095,8.20455 1.069471,0 2.154939,-0.15961 3.24026,-0.47089 41.445772,-12.24309 66.482812,-20.77497 99.253252,-53.67414 27.47046,-27.58283 56.33844,-39.96854 85.78056,-36.76076z"/>
  <path d="m228.61616,143.55662c2.23482,3.10461 5.73048,4.74874 9.28213,4.74874 2.31451,0 4.66088,-0.70234 6.68016,-2.1629 5.13182,-3.69529 6.28112,-10.84639 2.57786,-15.97026 -21.76387,-30.177668 -38.60575,-94.960536 -38.77328,-95.606169 -1.57229,-6.121562 -7.86949,-9.768833 -13.93506,-8.228477 -6.12154,1.572284 -9.80886,7.813492 -8.23644,13.927079 0.74226,2.825294 18.09332,69.602727 42.40401,103.292597z"/>
  <path d="m302.33383,295.93643c-5.69861,19.32229 -16.32148,35.46744 -27.56649,52.54836 -6.90367,10.47922 -14.03088,21.30212 -20.17633,33.1852 -2.89721,5.61077 -0.70234,12.51444 4.91629,15.41167 1.67602,0.86993 3.47174,1.27698 5.24358,1.27698 4.14213,0 8.14879,-2.25873 10.17602,-6.19328 5.58687,-10.80653 12.37877,-21.12639 18.94717,-31.11138 11.67632,-17.73414 23.75189,-36.06608 30.63941,-59.44407 5.81038,-19.76932 14.58949,-49.63479 33.63267,-55.34138 6.0576,-1.81172 9.48952,-8.19659 7.67784,-14.24643 -1.81172,-6.05759 -8.18863,-9.50544 -14.24643,-7.67782 -30.92751,9.29009 -41.81353,46.3228 -49.24456,71.59071z"/>
  <path d="m370.84141,362.25781c4.41365,-33.34457 4.81269,-87.58468 4.82863,-89.88325 0.0479,-6.32116 -5.05215,-11.47691 -11.36516,-11.51675 h -0.0797c-6.28911,0 -11.39704,5.07607 -11.44504,11.36515 0,0.55069 -0.39906,55.10233 -4.62901,87.01872 -1.19718,9.00264 -3.36001,19.71335 -5.66654,31.05418 -6.22535,30.73544 -13.27264,65.58175 -8.52392,97.21824 0.86198,5.6745 5.73049,9.74491 11.30938,9.74491 0.55868,0 1.14129,-0.0399 1.70798,-0.12765 6.24924,-0.94178 10.55911,-6.76801 9.6172,-13.00929 -4.15826,-27.64617 2.46612,-60.39413 8.32429,-89.27643 2.37846,-11.7323 4.62104,-22.80998 5.92193,-32.58656z"/>
  <path d="m338.41625,205.03568c1.11738,0 2.25872,-0.15963 3.37593,-0.5108 6.0337,-1.85162 9.43374,-8.26054 7.57405,-14.29422 -3.71122,-12.07558 -11.67633,-47.69583 -4.22201,-67.28986 12.2431,-32.220834 13.83126,-68.358421 4.82863,-110.490688 -1.31689,-6.1852985 -7.45431,-10.1359822 -13.57586,-8.795253 -6.17733,1.3168945 -10.12005,7.398535 -8.79525,13.583833 5.13184,24.039975 10.32764,60.314458 -3.84689,97.569678 -11.58868,30.45552 2.13104,76.95404 3.73512,82.15801 1.51643,4.91628 6.04167,8.0689 10.92628,8.0689z"/>
  <path d="m364.73231,215.39456c1.28497,0.46291 2.59383,0.6784 3.87876,0.6784 4.69297,0 9.08251,-2.89721 10.75854,-7.55811 0.47887,-1.33283 11.81198,-33.05853 17.81401,-75.46252 5.69065,-40.32816 26.12196,-107.354425 26.32219,-108.032764 1.85162,-6.04166 -1.55633,-12.434549 -7.58997,-14.286273 -6.0576,-1.8516347 -12.4507,1.556325 -14.29425,7.589971 -0.86197,2.809364 -21.16522,69.404537 -27.10472,111.520456 -5.64263,39.9379 -16.5689,70.60183 -16.6727,70.90421 -2.139,5.95401 0.94178,12.51444 6.88774,14.64548z"/>
  <path d="m447.58297,149.84959c-12.91348,16.86414 -28.54926,34.03107 -47.77551,52.48502 -4.55729,4.37361 -4.70094,11.62054 -0.3352,16.17784 2.2428,2.33842 5.25157,3.51977 8.26054,3.51977 2.84921,0 5.69862,-1.0535 7.92526,-3.18449 20.08051,-19.2665 36.47472,-37.27973 50.10473,-55.08598 17.82995,-23.28808 26.6021,-45.03765 35.08536,-66.068023 7.85354,-19.45796 15.26004,-37.845701 29.61783,-58.285591 3.63132,-5.171678 2.37845,-12.30684 -2.79342,-15.938379 -5.17168,-3.631332 -12.31482,-2.394399 -15.93042,2.785461 -15.86646,22.601571 -24.12783,43.074157 -32.11663,62.882716 -8.29242,20.511416 -16.09795,39.888866 -32.04512,60.712886z"/>
  <path d="m467.46305,191.55074c-12.34691,11.66038 -25.97895,23.40046 -41.65418,35.89854 -4.94038,3.94272 -5.75439,11.14162 -1.81971,16.08202 2.25874,2.84125 5.59483,4.30987 8.96279,4.30987 2.49022,0 5.02008,-0.81408 7.11922,-2.49021 16.1938,-12.89754 30.28799,-25.0534 43.10687,-37.16124 20.00879,-18.89137 36.8813,-40.91861 53.21034,-62.21256 15.03653,-19.63366 30.58425,-39.92156 48.27813,-57.233354 4.51725,-4.421628 4.58917,-11.660379 0.17558,-16.177838 -4.41365,-4.509288 -11.65242,-4.597135 -16.17784,-0.175586 -18.85951,18.444331 -34.91782,39.402588 -50.44797,59.666768 -16.49699,21.52483 -32.07576,41.86053 -50.75241,59.49107z"/>
  <path d="m606.4192,323.31494c-0.423,-0.008 -46.72939,0.83004 -74.89453,-19.9767 -32.05942,-23.68855 -71.87063,-44.97432 -73.54604,-45.86718 -5.59482,-2.98487 -12.51443,-0.85399 -15.48336,4.71687 -2.96894,5.57887 -0.86198,12.50645 4.71687,15.47539 0.39903,0.21549 40.00123,21.38998 70.7285,44.0794 31.38926,23.1941 77.48936,24.47108 87.25777,24.47108 0.97369,0 1.57228,-0.016 1.77979,-0.024 6.31299,-0.15963 11.30936,-5.39521 11.14958,-11.7084 -0.15163,-6.31299 -5.53085,-11.50879 -11.70838,-11.16552z"/>
  <path d="m638.70133,219.76695c-23.27378,-13.19277 -52.26843,-21.06919 -70.86539,-25.14123 1.55631,-1.73192 2.96893,-3.41598 4.10227,-5.01211 14.72515,-20.68712 47.75917,-55.30051 57.20883,-63.5774 4.75672,-4.16623 5.24361,-11.38905 1.06949,-16.14576 -4.16624,-4.77264 -11.39702,-5.22766 -16.13781,-1.06948 -11.25337,9.84871 -45.42788,45.95504 -60.78438,67.52073 -11.23744,15.78677 -59.05994,47.04813 -76.54746,57.76048 -5.38723,3.30423 -7.08735,10.34357 -3.77517,15.73079 2.15494,3.52776 5.91396,5.46712 9.76881,5.46712 2.0352,0 4.10229,-0.54269 5.96995,-1.68401 2.27468,-1.3967 10.53502,-6.50464 21.06307,-13.48024 14.15062,13.97489 49.72265,46.79274 85.82959,61.61391 1.42065,0.5906 2.89724,0.86198 4.34972,0.86198 4.50132,0 8.77133,-2.67371 10.58302,-7.10331 2.40237,-5.84224 -0.39108,-12.53036 -6.23331,-14.92476 -29.76085,-12.21919 -60.51264,-39.51496 -75.26231,-53.67414 5.92193,-4.21405 11.89984,-8.63567 17.52655,-13.081 6.04165,0.95773 50.12105,8.42012 80.85651,25.84204 1.78778,1.00563 3.71918,1.48449 5.63465,1.48449 3.99054,0 7.85355,-2.08301 9.96845,-5.80221 3.1046,-5.49102 1.16524,-12.47458 -4.32581,-15.58715z"/>
  <path d="m433.60766,451.01324c1.12534,5.40316 5.89007,9.11439 11.19762,9.11439 0.77418,0 1.55632,-0.0797 2.33841,-0.23944 6.19326,-1.28498 10.16805,-7.34277 8.8831,-13.52806 -0.3352,-1.57228 -8.12489,-38.91631 -17.59049,-66.75454 -9.57737,-28.14061 -27.55014,-60.47382 -28.31633,-61.83048 -3.07273,-5.5229 -10.04833,-7.51029 -15.56327,-4.41367 -5.5229,3.0807 -7.49435,10.04833 -4.41365,15.56326 0.17559,0.31924 17.71819,31.85306 26.62459,58.04653 9.01079,26.48157 16.76035,63.67344 16.84023,64.04121z"/>
  <path d="m403.9408,167.62519c1.95538,1.3169 4.18218,1.94739 6.36897,1.94739 3.68732,0 7.29474,-1.77181 9.50546,-5.05215 15.97026,-23.73554 27.31108,-49.37123 33.71235,-76.17152 l 1.62018,-6.903687 c 4.89237,-21.126391 9.52158,-41.09433 25.14123,-53.64963 4.92445,-3.958638 5.6986,-11.16552 1.73989,-16.089981 -3.95873,-4.9244517 -11.1737,-5.7065766 -16.08999,-1.739875 -21.78023,17.518578 -27.79123,43.441927 -33.081,66.31525 l -1.58824,6.744099 c -5.76236,24.142134 -16.0101,47.264714 -30.44736,68.726214 -3.51978,5.24358 -2.13104,12.34689 3.12053,15.87442z"/>
  <path d="m310.05701,360.95019c-19.08282,31.16655 -30.16949,80.07397 -30.62307,82.14167 -1.38872,6.16138 2.49022,12.28294 8.65958,13.66371 0.83803,0.19154 1.68402,0.27934 2.51414,0.27934 5.24359,0 9.95249,-3.61539 11.14958,-8.93888 0.11178,-0.47089 10.73463,-47.30353 27.8137,-75.19896 3.30422,-5.38725 1.61219,-12.43454 -3.77517,-15.7308 -5.40316,-3.30421 -12.4425,-1.60422 -15.73876,3.78313z"/>
</svg>