<svg
    xmlns="http://www.w3.org/2000/svg"
    x="0px"
    y="0px"
    viewBox="0 0 511.997 511.997"
    fill="currentColor"
  >
    <path
      d="M505.343,205.068c-6.48-9.244-16.658-14.905-27.927-15.53c-17.112-0.95-32.756,10.291-37.234,26.726
      c-2.156,7.916-5.873,16.147-11.508,25.402c-8.708-8.347-13.168-18.632-13.978-32.127c-0.589-9.828-4.97-18.839-12.336-25.372
      c-7.369-6.536-16.854-9.811-26.664-9.214c-9.828,0.589-18.838,4.971-25.371,12.337c-6.532,7.367-9.805,16.836-9.215,26.663
      c1.872,31.183,13.845,58.328,34.812,79.234c-6.962,4.027-14.409,7.672-22.289,10.911c-3.537-13.084-7.761-25.646-11.876-37.889
      c-9.179-27.309-17.85-53.104-18.722-81.199c-0.296-9.525-0.102-20.872,0.575-33.819c31.002-3.372,70.26-13.294,97.335-40.199
      c6.983-6.941,10.847-16.184,10.878-26.029c0.031-9.845-3.775-19.113-10.714-26.095c-6.939-6.985-16.183-10.848-26.029-10.878
      c-0.039,0-0.078,0-0.116,0c-9.802,0-19.025,3.802-25.979,10.714c-7.513,7.464-20.827,13.278-38.178,16.789
      c2.413-18.946,4.484-32.195,4.589-32.861c3.181-20.071-10.559-38.991-30.63-42.174c-20.08-3.184-38.994,10.557-42.178,30.629
      c-0.618,3.893-15.102,96.031-13.234,156.21c1.212,38.978,12.538,72.675,22.534,102.414c12.58,37.422,22.299,66.34,12.86,98.741
      c-11.689-27.019-26.167-52.683-43.198-76.549c-9.508-13.323-19.485-26.716-30.079-40.937
      c-21.432-28.766-43.527-58.423-61.085-87.007c24.937-17.313,52.682-51.191,60.445-117.201
      c2.373-20.185-12.118-38.538-32.303-40.911c-20.196-2.374-38.537,12.121-40.91,32.301c-3.236,27.526-10.982,44.298-18.486,54.41
      c-0.456-2.817-0.744-5.516-0.862-8.085c-0.456-9.852-4.719-18.932-12.005-25.566c-7.275-6.623-16.681-10.006-26.518-9.552
      c-20.301,0.938-36.054,18.218-35.118,38.52c2.511,54.339,37.865,111.001,76.831,165.169c-20.732-1.031-45.389-5.315-58.297-18.669
      c-6.862-7.1-16.078-11.091-25.953-11.238c-9.836-0.162-19.207,3.568-26.279,10.462c-6.935,6.761-10.806,15.913-10.898,25.771
      c-0.093,10.075,3.908,19.956,10.98,27.111c25.568,25.866,64.348,39.492,115.265,40.5c18.794,0.369,35.718-1.092,47.797-2.613
      c2.701,3.706,5.167,7.124,7.47,10.35c45.08,63.175,55.3,125.243,55.385,125.775c2.055,13.996,12.122,25.724,25.648,29.878
      c3.512,1.077,7.15,1.624,10.815,1.624c10.309,0,20.216-4.36,27.182-11.958c9.443-10.306,17.883-20.747,25.157-31.117
      c7.798,1.733,17.781,3.424,28.685,3.984c2.594,0.133,5.187,0.2,7.708,0.2c45.289,0,69.275-21.236,81.421-39.051
      c5.546-8.135,7.593-17.942,5.763-27.616c-1.83-9.674-7.317-18.056-15.45-23.601c-8.133-5.548-17.941-7.594-27.615-5.765
      c-9.674,1.83-18.057,7.317-23.604,15.452c-3.529,5.177-12.301,7.493-24.679,6.717c1.47-6.433,2.557-12.934,3.253-19.457
      c72.767-23.63,110.696-66.692,129.801-99.133c8.257-14.022,14.78-28.882,19.386-44.166
      C513.642,225.732,511.799,214.28,505.343,205.068z M490.864,230.601c-4.137,13.726-10.002,27.083-17.434,39.701
      c-17.827,30.272-53.939,70.81-124.73,92.02c-4.088,1.225-6.981,4.866-7.252,9.126c-0.712,11.277-2.769,22.547-6.112,33.496
      c-0.853,2.794-0.467,5.82,1.061,8.31c1.527,2.491,4.049,4.206,6.926,4.713c27.253,4.796,46.673-0.029,56.164-13.951
      c2.477-3.633,6.222-6.084,10.542-6.902c4.319-0.817,8.698,0.097,12.331,2.574c3.633,2.476,6.084,6.219,6.901,10.54
      c0.818,4.319-0.096,8.699-2.572,12.332c-9.377,13.752-28.191,30.144-64.569,30.144c-2.174,0-4.416-0.058-6.662-0.173
      c-12.811-0.658-24.243-3.109-31.577-5.05c-4.237-1.12-8.709,0.587-11.12,4.242c-7.538,11.422-16.7,23.04-27.231,34.534
      c-3.108,3.394-7.533,5.341-12.138,5.341c-1.634,0-3.259-0.245-4.827-0.726c-6.04-1.854-10.536-7.091-11.463-13.401
      c-0.101-0.662-10.674-66.943-58.954-134.601c-3.332-4.67-6.997-9.727-11.202-15.457c-1.939-2.641-5.005-4.165-8.222-4.165
      c-0.488,0-0.978,0.035-1.472,0.104c-11.331,1.646-29.767,3.64-50.576,3.232c-45.421-0.899-79.456-12.487-101.159-34.445
      c-3.279-3.317-5.133-7.902-5.089-12.582c0.041-4.383,1.724-8.414,4.739-11.354c3.159-3.079,7.352-4.75,11.736-4.673
      c4.409,0.065,8.526,1.847,11.59,5.018c21.793,22.544,62.839,26.046,93.437,25.009c3.781-0.127,7.181-2.339,8.831-5.742
      c1.652-3.405,1.283-7.442-0.957-10.491c-39.717-54.049-82.3-116.248-84.802-170.394c-0.418-9.067,6.618-16.784,15.695-17.204
      c4.377-0.203,8.588,1.303,11.831,4.257c3.255,2.964,5.158,7.021,5.362,11.425c0.419,9.094,2.438,19.195,5.997,30.024
      c1.006,3.058,3.395,5.462,6.448,6.485c3.054,1.024,6.407,0.546,9.054-1.289c14.436-10.014,32.832-32.039,38.484-80.103
      c1.06-9.013,9.254-15.483,18.271-14.426c9.013,1.06,15.484,9.256,14.425,18.27c-7.7,65.478-36.385,94.545-59.091,107.399
      c-2.377,1.346-4.115,3.589-4.824,6.226c-0.711,2.638-0.334,5.448,1.047,7.805c18.824,32.134,43.523,65.286,67.44,97.387
      c10.498,14.093,20.416,27.405,29.802,40.558c20.821,29.178,37.628,61.185,49.955,95.133c1.371,3.775,4.828,6.394,8.833,6.691
      c3.983,0.299,7.811-1.783,9.723-5.315c27.043-49.946,13.475-90.31-2.238-137.057c-9.544-28.392-20.361-60.571-21.479-96.539
      c-1.81-58.275,12.386-148.566,12.992-152.38c1.422-8.964,9.866-15.102,18.835-13.679c8.963,1.422,15.099,9.871,13.674,18.859
      c-0.132,0.838-3.256,20.833-6.341,47.064c-0.365,3.112,0.718,6.218,2.941,8.427c2.222,2.209,5.335,3.274,8.445,2.886
      c19.94-2.475,47.069-8.764,63.073-24.668c3.107-3.086,7.224-4.784,11.603-4.784c0.017,0,0.035,0,0.052,0
      c4.396,0.014,8.523,1.739,11.623,4.859c3.1,3.118,4.799,7.257,4.784,11.653c-0.014,4.397-1.739,8.525-4.858,11.624
      c-26.662,26.496-69.95,33.39-93.383,35.142c-5.069,0.378-9.085,4.434-9.416,9.508c-1.125,17.255-1.502,32.217-1.122,44.47
      c0.967,31.106,10.103,58.286,19.779,87.075c5.129,15.256,10.432,31.031,14.167,47.268c0.65,2.827,2.472,5.242,5.012,6.644
      c2.54,1.402,5.556,1.654,8.293,0.699c18.09-6.323,34.477-14.525,48.705-24.374c2.656-1.838,4.283-4.823,4.389-8.05
      c0.107-3.227-1.321-6.313-3.849-8.322l-0.259-0.205c-0.219-0.175-0.441-0.351-0.661-0.529
      c-22.257-18.094-34.964-43.377-36.748-73.115c-0.264-4.389,1.197-8.617,4.114-11.907c2.917-3.289,6.941-5.247,11.333-5.51
      c4.367-0.267,8.613,1.196,11.903,4.113c3.289,2.918,5.245,6.942,5.509,11.332c1.192,19.856,8.975,36.096,23.132,48.269
      c2.52,2.167,5.267,4.213,8.165,6.082c4.629,2.985,10.793,1.754,13.922-2.78c10.396-15.068,16.849-28.002,20.311-40.705
      c1.964-7.211,8.857-12.141,16.423-11.72c4.983,0.276,9.486,2.78,12.353,6.87C491.476,220.833,492.289,225.872,490.864,230.601z"
    />
    <path
      d="M183.738,281.746l-24.528-36.282c-3.155-4.667-9.495-5.89-14.162-2.737c-4.667,3.155-5.893,9.495-2.737,14.162
                          l24.528,36.282c1.972,2.915,5.185,4.488,8.458,4.488c1.966,0,3.952-0.568,5.703-1.75
                          C185.668,292.753,186.894,286.412,183.738,281.746z"
    />
    <path
      d="M139.761,216.695l-7.208-10.662c-3.155-4.667-9.495-5.89-14.162-2.737c-4.667,3.155-5.893,9.495-2.737,14.162
                          l7.208,10.662c1.971,2.915,5.185,4.488,8.458,4.488c1.966,0,3.952-0.567,5.703-1.75
                          C141.691,227.702,142.917,221.361,139.761,216.695z"
    />
  </svg>