<svg xmlns="http://www.w3.org/2000/svg" x="0px" y="0px" viewBox="0 0 511.999 511.999" fill="currentColor">
    <circle cx="440.325" cy="270.911" r="10.53"></circle>
    <path d="M498.588,263.921c-0.728-1.168-21.276-31.753-30.261-45.125c-21.818-36.488-52.882-66.867-89.851-87.864
        c-37.051-21.044-79.161-32.168-121.772-32.168H37.476c-3.996,0-7.649,2.263-9.428,5.84c-1.78,3.579-1.381,7.857,1.031,11.043
        l83.856,110.859l-14.127,21.65L24.504,155.07c-2.79-3.496-7.487-4.848-11.709-3.371c-4.223,1.479-7.05,5.464-7.05,9.939v166.398
        c0,5.815,4.715,10.53,10.53,10.53h23.536L1.712,396.95c-2.113,3.237-2.281,7.371-0.442,10.77c1.84,3.399,5.395,5.515,9.26,5.515
        h366.692c25.029,0,46.405-11.919,66.154-24.124c23.611-14.593,59.295-36.647,67.067-69.921
        C514.536,301.669,510.546,283.071,498.588,263.921z M26.804,317.506V191.712l59.882,75.02l-10.338,15.844l-15.896-8.835
        c-5.079-2.823-11.492-0.995-14.32,4.09c-2.825,5.082-0.994,11.494,4.09,14.32l14.587,8.107l-11.255,17.249H26.804z
        M489.935,314.398c-5.784,24.752-35.751,43.273-57.632,56.796c-17.887,11.055-35.56,20.978-55.081,20.978H29.974l104.643-160.36
        c2.427-3.72,2.259-8.565-0.421-12.107l-75.553-99.884h198.062c79.003,0,153.217,42.152,193.681,110.007
        c0.097,0.162,0.197,0.323,0.304,0.479c11.561,17.205,29.113,43.346,30.03,44.761C489.732,289.5,492.745,302.365,489.935,314.398z"></path>
    <path d="M339.531,171.318c-23.412-16.587-50.505-24.651-82.826-24.651h-122.93c-3.996,0-7.649,2.263-9.428,5.84
        c-1.78,3.579-1.381,7.855,1.031,11.043l46.082,60.923L90.169,349.047c-2.111,3.237-2.28,7.371-0.441,10.77
        c1.84,3.399,5.395,5.515,9.26,5.515h251.36l0.225-0.001c0.004,0,0.17,0,0.174,0c21.032-0.151,38.87-16.218,41.491-37.372
        l3.396-27.418C401.922,249.804,380.424,200.29,339.531,171.318z M374.734,297.952l-3.396,27.418
        c-0.453,3.654-1.807,6.995-3.788,9.83l-60.097-125.66c-2.506-5.245-8.794-7.466-14.042-4.956
        c-5.247,2.509-7.466,8.797-4.957,14.042l60.091,125.644h-38.033l-47.97-100.298c-2.507-5.247-8.795-7.468-14.042-4.957
        c-5.247,2.509-7.466,8.797-4.957,14.042l43.625,91.214h-41.026L214.638,278.4c-2.509-5.244-8.791-7.466-14.043-4.956
        c-5.245,2.509-7.464,8.797-4.956,14.043l27.157,56.782H118.432l74.711-114.49c2.427-3.72,2.259-8.565-0.421-12.107l-37.779-49.945
        h101.762c28.197,0,50.647,6.601,70.651,20.773C361.911,212.985,380.066,254.922,374.734,297.952z"></path>
</svg>