<?xml version="1.0" encoding="iso-8859-1"?>
<svg xmlns="http://www.w3.org/2000/svg" x="0px" y="0px" viewBox="0 0 252.23 252.23" fill="currentColor" stroke="currentColor" strokeWidth="25">
	<path d="M251.276,172.678c0.181-0.341,0.38-0.666,0.549-1.017c0.481-0.995-0.836-1.755-1.473-0.861
		c-11.199,15.74-32.491,17.511-42.486,0.207c-4.307-7.458-5.853-16.007-10.457-23.277c-5.326-8.409-13.325-13.222-22.691-15.255
		c34.556-46.338,7.19-122.278-55.364-122.412c-19.719-0.042-36.349,7.467-48.762,19.234c-3.015,1.231-5.74,3.61-7.678,5.958
		c-1.793,2.173-3.906,5.54-4.337,8.76c-14.832,23.645-17.255,55.456-2.103,81.428c-17.06-1.814-30.398,10.578-32.583,27.622
		c-1.416,11.036,2.695,21.949-0.675,32.966c-2.971,9.71-10.593,15.811-15.841,24.012c-6.098,9.531-9.522,17.454-5.886,28.462
		c0.385,1.167,1.789,1.032,2.221,0.182c0.246-0.026,0.476-0.123,0.61-0.389c9.512-19.015,30.551-20.179,45.079-33.175
		c15.434-13.806,9.01-44.18,28.814-52.935c1.313,5.992,4.815,11.866,7.839,18.329c7.807,16.682,0.953,28.365-0.944,44.192
		c-0.827,6.896,0.092,11.093,4.234,16.676c0.716,0.965,1.988,0.778,2.566,0.081c0.017-0.005,0.022-0.005,0.039-0.01
		c0.579-0.18,0.591-0.899,0.176-1.186c-0.041-0.137-0.07-0.273-0.159-0.417c-0.027-0.044-0.043-0.089-0.069-0.133
		c1.384-2.019,10.965-11.164,11.371-11.497c4.073-3.336,8.455-6.338,12.269-9.988c4.725-4.523,8.877-9.575,11.16-15.763
		c1.254-3.4,1.618-6.515,1.397-9.447c0.293,2.51,0.766,4.854,1.645,6.858c7.956,18.164,23.63,26.855,14.734,50.241
		c-0.162,0.425-0.037,0.798,0.208,1.084c0.043,0.617,0.662,1.205,1.408,0.85c12.757-6.076,22.659-16.841,23.911-31.49
		c1.776-20.78-18.6-32.504-13.688-53.539c7.531,1.405,19.292,16.179,21.747,22.2c1.327,3.254,1.95,6.773,3.362,10.027
		c1.493,3.444,3.279,6.88,5.536,9.891c6.497,8.666,15.851,13.652,26.725,13.933c22.353,0.577,37.673-18.162,38.55-39.364
		C252.253,173.127,251.781,172.757,251.276,172.678z M116.879,148.139c13.229,5.349,9.771,22.325,11.204,34.811
		C127.113,170.682,115.971,161.577,116.879,148.139z M205.81,208.679c-18.609-5.721-21.21-23.091-26.804-38.592
		c-4.007-11.105-11.533-16.341-23.007-15.199c-0.695-0.546-1.907-0.459-2.26,0.653c-1.463,4.605-2.045,8.992-1.658,13.287
		c-0.397-1.131-1.186-2.107-2.066-2.968c-0.66-0.645-1.797-0.849-2.602-0.336c-1.287,0.82-1.961,2.115-2.085,3.452
		c-0.211,0.942-0.192,1.915,0.254,2.826c0.726,1.483,2.328,2.439,3.978,2.116c1.602-0.314,2.656-1.747,2.779-3.339
		c0.565,3.7,1.821,7.349,3.915,11.022c0.491,0.861,0.983,1.694,1.474,2.527c-1.79-1.489-4.261-2.87-6.253-1.655
		c-2.479,1.513-1.598,5.075-0.648,7.237c0.555,1.265,1.405,2.585,2.457,3.692c1.364,1.856,3.343,3.782,5.511,4.076
		c2.659,0.36,3.994-2.169,3.888-4.494c2.382,4.812,4.03,9.821,3.794,16.037c-0.088-0.119-0.149-0.252-0.254-0.363
		c-0.525-0.561-1.158-0.862-1.82-0.985c-0.653-0.492-1.445-0.755-2.418-0.593c-0.028,0.005-0.045,0.022-0.073,0.027
		c-0.524-0.376-1.242-0.392-1.64,0.382c-1.313,2.548-2.092,6.563-1.208,9.372c0.764,2.428,2.926,2.49,4.691,1.54
		c0.43-0.148,0.826-0.389,1.182-0.721c-2.839,8.772-9.219,15.726-17.079,20.924c8.876-22.056-10.837-34.97-16.026-55.28
		c-3.068-12.005,2.488-35.183-15.11-37.439c-0.684-0.977-2.698-0.984-2.95,0.456c-3.271,18.666,18,29.798,6.787,49.229
		c-6.831,11.838-24.204,19.079-30.14,31.145c-4.826-12.156,3.974-25.491,4.132-38.044c0.481,0.4,0.987,0.777,1.535,1.107
		c1.266,0.766,2.61-0.031,3.094-1.258c1.1-2.793,0.937-5.893-0.249-8.635c-0.958-2.214-3.176-5.431-5.879-5.405
		c-0.44,0.004-0.813,0.086-1.138,0.218c-0.231,0.009-0.452,0.079-0.657,0.198c-3.379-8.04-8.34-16.266-9.818-24.408
		c0.403-0.677,0.246-1.575-0.304-2.1c-0.395-3.873,0.077-7.721,2.054-11.511c0.584-1.119-0.983-2.022-1.684-0.984
		c-3.062,4.541-4.035,8.745-3.787,12.835c-21.605,7.671-15.429,37.42-29.336,52.082c-13.611,14.35-36.347,15.78-44.846,34.939
		c-1.558-11.908,4.911-20.921,11.533-29.957c-0.831,1.522-1.379,3.22-1.579,4.945c-0.189,1.628,1.85,2.431,3.076,1.766
		c3.255-1.765,5.05-5.137,5.194-8.771c0.014-0.347-0.106-0.663-0.259-0.958c0.024-0.899-1.11-1.737-2.094-1.269
		c-0.024,0.011-0.039,0.031-0.063,0.043c-0.316,0.024-0.635,0.074-0.92,0.27c-0.451,0.309-0.833,0.648-1.189,0.999
		c2.793-3.864,5.464-7.787,7.393-12.001c0.428,0.441,1.034,0.753,1.913,0.849c2.412,0.264,4.654-1.47,5.83-3.441
		c1.187-1.99,2.228-5.462,1.436-7.741c-0.664-1.909-2.318-2.534-3.91-2.141c-0.435-0.159-0.949-0.103-1.375,0.305
		c-0.268,0.256-0.595,0.641-0.949,1.118c0.474-5.528-0.239-11.033-0.252-16.633c-0.008-3.562,0.325-6.944,0.974-10.116
		c2.145,0.303,4.944-0.885,6.57-2.132c4.758-3.649,7.992-8.832,9.459-14.62c0.16-0.631,0.017-1.432-0.384-2.018
		c0.009-0.012,0.021-0.013,0.03-0.026c0.081-0.125,0.161-0.25,0.242-0.375c0.33-0.511,0.156-1.127-0.201-1.556
		c-0.279-0.334-0.62-0.531-0.97-0.706c4.082-2.271,8.931-3.718,14.607-4.108c0.963,1.537,1.987,3.052,3.078,4.541
		c0.831,1.135,2.64,0.158,1.926-1.126c-12.91-23.211-17.891-49.509-6.768-74.522c1.129-2.539,2.445-4.996,3.878-7.388
		c2.285,2.745,6.745,1.117,9.544-0.657c4.327-2.741,7.739-6.797,9.683-11.535c1.245-3.034,1.295-6.785-1.75-7.648
		c11.182-8.826,24.891-14.417,39.258-14.831c4.165-0.12,8.311,0.196,12.391,0.863c-0.586,0.895-0.806,2.065-0.195,3.403
		c2.29,5.01,9.414,8.009,14.549,8.364c3.434,0.238,6.779-1.701,7.098-4.434c10.698,5.777,19.879,14.349,26.067,24.977
		c16.052,27.569,10.75,58.681-4.859,84.392c-2.451-0.332-3.518,3.406-1.02,3.794c16.471,2.561,21.67,11.682,26.907,23.17
		c-1.877-0.406-3.732,1.071-3.839,3.131c-0.137,2.626,2.348,5.742,4.681,6.73c1.26,0.533,2.585,0.413,3.608-0.189
		c0.368,0.755,0.734,1.51,1.128,2.273c3.161,6.138,7.282,11.099,13.668,14.07c0.842,0.392,1.69,0.729,2.537,1.027
		c-1.504,0.775-1.962,3.462-0.235,5.019c3.849,3.47,11.238,3.608,15.941,2.348c1.654-0.443,3.695-1.199,4.076-3.119
		c0.365-1.838-0.899-3.212-2.495-3.825c-0.244-0.094-0.529-0.129-0.787-0.202c5.588-1.849,10.529-5.621,14.022-10.855
		C245.671,195.494,228.77,215.738,205.81,208.679z"/>
	<path d="M101.312,27.551c0.166-0.801-0.11-1.661-0.652-2.258c-0.114-0.401-0.307-0.784-0.663-1.098
		c-1.365-1.205-3.251-0.557-4.663,0.161c-2.843,1.444-6.72,4.541-7.469,7.836c-0.858,3.778,3.074,4.636,5.891,3.88
		c1.028,0.087,2.108-0.186,2.965-0.708c2.045-1.245,4.133-4.192,4.285-6.903C101.097,28.153,101.247,27.867,101.312,27.551z"/>
	<path d="M126.335,31.38c-0.456-2.607-3.23-3.891-5.614-4.167c-0.9-0.104-1.75,0.079-2.471,0.438
		c-0.721,0.174-1.388,0.535-1.926,1.154c-1.396,0.898-1.687,2.743-1.018,4.339c1.064,2.536,4.028,3.647,6.632,3.282
		C124.425,36.078,126.813,34.113,126.335,31.38z"/>
	<path d="M39.865,162.524c0.033-0.431-0.117-0.801-0.329-1.135c-0.005-0.336,0.047-0.671,0.012-1.005
		c-0.18-1.678-1.776-2.826-3.385-1.943c-1.87,1.027-3.004,2.986-3.177,5.022c-0.755,1.743-0.934,3.833-0.644,5.546
		c0.287,1.697,2.424,1.829,3.502,0.925c0.804-0.675,1.448-1.49,2.002-2.363C39.07,166.082,39.714,164.487,39.865,162.524z"/>
	<path d="M101.215,203.238c0.163-1.215,0.135-2.47-0.15-3.72c-0.372-1.63-2.448-1.988-3.572-0.943
		c-0.71,0.66-1.228,1.427-1.653,2.234c-1.86,2.234-2.546,5.329-2.729,8.147c-0.102,1.583,1.763,2.415,3.02,1.733
		c2.034-1.104,3.526-2.815,4.378-4.806C100.998,205.04,101.268,204.108,101.215,203.238z"/>
	<path d="M92.509,157.213c-0.594-2.339-3.259-4.26-5.393-3.432c-0.663-0.199-1.435-0.03-1.775,0.673
		c-1.335,2.76-0.397,6.594,2.351,8.19c1.351,0.785,3.131,0.623,4.161-0.606C92.957,160.719,92.912,158.802,92.509,157.213z"/>
	<path d="M188.356,146.15c-1.69-2.552-4.285-5.153-7.241-6.171c-2.759-0.95-5.394,0.591-6.255,3.19
		c-0.453,0.411-0.764,0.982-0.775,1.609c-1.172,4.24,5.025,8.992,8.363,10.384c2.391,0.997,6.518,2.38,7.996-0.69
		C191.663,151.94,189.736,148.234,188.356,146.15z"/>
	<path d="M94.882,92.454c0.975-2.34,0.852-5.23-0.041-7.494c-0.569-1.446-1.538-3.055-3.232-3.283
		c-1.962-0.265-2.951,1.311-3.531,2.913c-1.093,3.021-1.969,8.356,1.49,10.236c0.962,0.523,1.843,0.646,2.607,0.49
		c0.31,0.002,0.621-0.069,0.888-0.293c0.043-0.036,0.072-0.082,0.114-0.119C94.006,94.389,94.582,93.491,94.882,92.454z"/>
	<path d="M150.832,79.63c-0.191-0.443-0.536-0.679-0.92-0.832c-0.398-0.706-1.348-1.071-2.075-0.325
		c-2.121,2.177-3.16,4.972-3.214,8.003c-0.043,2.41,0.55,6.178,3.214,7.071c2.956,0.991,4.68-2.483,5.005-4.824
		C153.282,85.536,152.071,82.5,150.832,79.63z"/>
	<path d="M127.653,96.26c-0.324-1.727-3.163-1.726-3.488,0c-0.237,1.256-0.292,2.74-1.294,3.685
		c-1.634,1.542-4.869,0.737-4.184-1.983c0.491-2.266-2.89-3.232-3.494-0.964c-0.315,1.554-0.828,5.422-3.905,3.577
		c-1.598-0.959-1.021-4.447-0.934-5.964c0.081-1.409-2.001-1.602-2.393-0.324c-1.139,3.717-0.932,9.061,3.664,10.247
		c2.265,0.585,3.89-0.349,5.041-1.851c1.163,1.276,2.825,2.1,4.726,1.982C125.468,104.411,128.373,100.103,127.653,96.26z"/>

</svg>
