<?xml version="1.0" encoding="UTF-8"?>
<svg width="700pt" height="700pt" version="1.1" viewBox="0 0 700 700" xmlns="http://www.w3.org/2000/svg" xmlns:xlink="http://www.w3.org/1999/xlink" fill="currentColor">
  <path d="m498.4 370.16c8.5664 6.832 15.934 14.867 24.332 22.035 1.6797 1.4297 4.6211-0.28125 3.5273-2.4648-0.72656-1.4844-1.5391-2.9414-2.4062-4.3398l0.16797-0.19531c2.9688-7.2227 2.1562-15.961 2.4375-23.688 0.47266-7.8672 0.3125-15.762-0.47656-23.605-0.015625-0.17578-0.12109-0.33594-0.28125-0.41797-0.13281-0.26953-0.38672-0.46094-0.67969-0.52344-0.29688-0.058594-0.60156 0.019531-0.83203 0.21484-8.3984 7.6719-16.801 15.734-25.199 23.688-17.457-11.109-37.344-17.832-57.961-19.598-28.195-2.1016-69.496 12.348-72.801 45.668-3.3047 33.32 50.008 31.891 70 24.723 22.039-7.8398 42.59-23.633 60.172-41.496zm25.957-30.27c-1.2734 7.7383-2.0859 15.547-2.4336 23.383-0.78906 5.9102-1.0898 11.875-0.89844 17.836-4.7812-6.4375-10.523-12.105-17.023-16.801 7.1992-7.7852 13.992-15.934 20.355-24.418zm-106.71 70.336c-15.344 1.3438-43.766-3.1094-42.531-23.184 1.0078-16.211 16.801-29.035 30.801-34.746 15.766-6.4102 33.348-6.3008 49.727-2.4648 12.766 3.0273 24.918 8.2266 35.922 15.371 0.55859 0.36328 1.0938 0.78516 1.625 1.1484-10.406 9.9961-21.598 19.141-33.461 27.355-12.57 8.457-26.738 15.094-42.082 16.52zm4.9297 21.645c-0.95312 0.55859-1.0078 1.625-1.2305 2.6602-0.30859 1.5117-0.55859 3.0234-0.72656 4.5352-7.4492 2.8008-14.223 8.3984-20.832 13.691l-0.003906 0.003907c-8.1211-4.4141-16.957-7.3711-26.098-8.7383-12.012-1.793-41.301-2.4375-44.465 14-3.5547 18.676 21.477 22.398 33.965 19.965 12.242-2.7969 23.777-8.0859 33.879-15.539l2.8008-1.8477c7.2422 5.0234 14.051 10.641 20.355 16.797 0.55469 0.50391 1.3828 0.55469 1.9922 0.125 0.61328-0.42969 0.84375-1.2266 0.55859-1.9141-3.8281-7.7695-9.6172-14.402-16.801-19.238 5.3164-3.543 10.141-7.7773 14.336-12.598 0 2.2109-0.19531 4.4258-0.33594 6.6094v-0.003906c-0.83984 6.2734-0.83984 12.629 0 18.902 0.16406 0.53906 0.66406 0.91016 1.2305 0.91016s1.0664-0.37109 1.2344-0.91016c1.2773-6.2148 1.8047-12.562 1.5664-18.902 0.37891-5.207 0.43359-10.434 0.16797-15.652 0-0.75781-0.16797-1.5117-0.28125-2.2695-0.11328-0.75781-0.14062-1.2305-0.98047-0.92578zm-33.797 28.98c-7.1172 4.5-14.84 7.9609-22.934 10.277-3.9414 1.1406-8.0195 1.7422-12.125 1.793-7.0273 0-24.836-6.2148-14.422-18.562 7.7578-9.1836 33.461-4.957 43.008-2.0156l0.003906-0.003906c4.0547 1.2539 7.9727 2.9023 11.703 4.9297-1.6797 1.2852-3.4297 2.4805-5.2344 3.582zm-57.82-32.453c-0.66016 0.96484-1.0547 2.0859-1.1484 3.25-0.03125 1.2891 0.52344 2.5273 1.5117 3.3594 1.0664 0.82813 2.4336 1.168 3.7656 0.9375 1.332-0.22656 2.5039-1.0039 3.2344-2.1406 1.5781-2.5273 1-5.8359-1.3438-7.6719-2.1836-1.8203-6.1055-1.0078-6.0195 2.2656zm3.9219 3.8086c-0.61719 0.64453-1.2891 0.25391-1.793-0.30859-0.59766-0.71094-0.90625-1.6172-0.87109-2.5469 0.14062-0.015624 0.27344-0.066406 0.39453-0.14062 1.5391-1.0625 3.5273 1.6523 2.2656 2.9141zm-20.242-32.117c-3.6953 3.4141-2.0703 8.3984 1.625 11.004l-0.003906 0.003906c0.28516 0.15234 0.63281 0.15234 0.92188 0 0.62891 1.4492 1.8867 2.5352 3.4141 2.9414 1.5273 0.41016 3.1562 0.097657 4.4258-0.84375 3.0469-3.0156 3.332-7.8398 0.66797-11.191-2.668-3.3555-7.4297-4.168-11.055-1.8828zm9.1836 9.7734c-1.3164 2.8008-5.207 1.5977-6.1875-0.78516h-0.003907c-0.058593-0.11328-0.16016-0.20703-0.28125-0.25-0.51953-1.4219-0.70312-2.9453-0.53125-4.4531 0.55859-2.8008 3.9492-2.1016 5.6016-0.8125 1.8438 1.5 2.4219 4.0703 1.3984 6.2188zm8.9609-21.785h-0.003906c1.8438 0.78125 3.9453 0.64844 5.6758-0.35156 1.7344-1 2.8984-2.7578 3.1445-4.7422 0.125-4.0312-2.7461-7.5352-6.7227-8.2031-1.9336-0.5625-4.0156-0.15625-5.5977 1.0898-1.2461 1.4883-1.6016 3.5312-0.92578 5.3477-0.30469 3.0195 1.5391 5.8438 4.4258 6.7773zm1.3711-8.9023c1.5977 0.61719 3.332 1.9609 3.1094 3.8633-0.22266 1.9023-2.6055 2.043-4.1992 1.5664l-0.007812 0.003906c-1.4219-0.46094-2.5352-1.5742-2.9961-2.9961 0 0 0.19531-0.16797 0.25391-0.30859 0.75391-2.0156 1.707-2.9961 3.8359-2.2109zm30.996-22.398h-0.003906c0.082031 0.15234 0.22266 0.26562 0.39062 0.30859-0.28516 0.91797-0.13281 1.918 0.41406 2.707 0.54688 0.79297 1.4258 1.293 2.3867 1.3516 2.2148-0.21484 3.9141-2.0586 3.9492-4.2852 0.19531-2.3867-1.543-4.4961-3.9219-4.7578-2.0977-0.22656-4.6758 2.2383-3.2188 4.4492zm4.957 0c0.28125 2.8008-3.9766 3.0508-3.5273 0.42188l-0.007812-0.003907c0.0625-0.11328 0.0625-0.25 0-0.36328 0 0 0.16797-0.14062 0.19531-0.25391h0.003907c0.21484-0.73828 0.89453-1.2461 1.6641-1.2461s1.4492 0.50781 1.668 1.2461zm8.3984-50.062c-3.0234-1.793-8.9023-3.3867-10.305 0.92578l-0.003906-0.003906c-1.3633 1.1641-2.168 2.8516-2.2227 4.6406-0.054687 1.793 0.65234 3.5234 1.9453 4.7656 3.3281 2.9414 8.3711 2.7812 11.508-0.36328 1.6094-1.2773 2.4648-3.2812 2.2812-5.332-0.1875-2.0469-1.3945-3.8633-3.207-4.832zm-2.3516 8.7656-0.003906-0.003907c-2.0664 0.68359-4.3438 0.16797-5.9102-1.3438-1.2148-1.332-1.7422-3.1523-1.4258-4.9297 0.24609 0.007813 0.49219-0.058594 0.69922-0.19531 2.043-1.7656 5.0117-0.50391 7.0547 0.61719 1.1016 0.56641 1.7578 1.7344 1.6641 2.9648-0.089844 1.2344-0.91016 2.293-2.082 2.6914zm-0.30859 25.199-0.003906-0.003907c1.3516 1.1719 3.1406 1.7031 4.9141 1.457 1.7695-0.24609 3.3477-1.2461 4.3281-2.7461 1.6211-2.9805 0.8125-6.6992-1.9062-8.7344-2.2383-1.6797-7.4219-2.043-7.3906 1.9023 0 0.21875 0.078126 0.42578 0.22266 0.58984-1.0625 0.91016-1.6875 2.2305-1.7227 3.6289-0.03125 1.4023 0.53516 2.75 1.5547 3.707zm1.793-7.3906c2.1836-2.3516 5.207 2.0156 4.2852 4.2266-1.3164 3.2188-7.4492-0.30859-4.9844-3.5273l-0.003906-0.003906c0.050781-0.125 0.050781-0.26562 0-0.39062 0.27734-0.03125 0.53125-0.17188 0.69922-0.39453zm175.84 133.81c-16.352 3.7539-34.242 1.1758-50.121-3.668-19.32-5.9062-37.238-20.133-58.184-13.242-2.3789 0.75781-3.3047-2.6055-1.3164-3.6953 13.859-7.5898 28-3.1094 41.664 2.8008 22.82 9.8281 43.262 12.266 67.73 14.168v-0.007813c0.73047 0.22656 1.2461 0.87891 1.293 1.6445 0.050781 0.76172-0.375 1.4805-1.0703 1.7969zm-84.957-212.8c1.6523 0.36328 3.2773 0.69922 4.8711 0.92578 21.223 3.1641 37.324-2.9961 55.074-13.805 12.207-7.4219 25.676-15.062 40.32-11.426 2.8008 0.69922 1.3984 4.1992-0.89453 4.2852-29.848 1.2617-49.504 27.301-79.633 28.223h0.003906c-13.223-0.019531-26.344-2.3203-38.781-6.8047-17.613-5.8242-32.199-10.586-46.676 2.4648-2.2383 2.8438-4.7422 5.4688-7.4766 7.8398-15.875 13.551-35.254 23.27-52.473 35.086 2.8008 12.797 2.4062 25.367-6.0195 36.398-9.3242 12.293-24.668 12.738-35.785 22.398-7.8594 6.7578-13.289 15.906-15.453 26.043-0.98047 5.6016-0.53125 11.199-1.9023 16.801 7.4766 18.816 13.328 43.262 8.8203 63.59l-0.003906-0.003906c6.5195-1.8633 12.938-4.0469 19.238-6.5508 1.5391-0.61719 3.4141 1.2031 1.793 2.4375-21.281 16.324-50.203 14.281-74.898 8.5977-33.797-7.7852-66.445-20.496-100.46-6.1602l-0.003906-0.003907c-0.64844 0.33984-1.4531 0.089844-1.793-0.5625-0.33984-0.64844-0.089844-1.4492 0.5625-1.7891 21.758-13.609 48.832-9.9688 72.574-4.2266 17.109 4.1445 34.047 9.8008 51.715 11.367 8.1094 0.69922 16.277 0.21484 24.25-1.4297-0.64453-13.301 0.67188-26.066-1.875-39.395-2.4336-12.691-6.7148-24.957-12.715-36.402-5.9062-11.379-13.551-21.77-22.652-30.801-7.1406-7.0273-15.625-12.516-20.719-21.168-8.2617-2.3516-16.969 1.8477-25.703 1.4844-7.0547 0.69922-12.656 1.793-18.312 8.0938-1.7344 1.9336-3.0781 4.1445-4.8711 6.0469-4.918 5.1055-10.852 9.1211-17.418 11.789-13.496 5.6016-30.801 6.7773-44.211 0.83984-2.2383-1.0078-0.50391-4.1172 1.4297-4.0898 12.32 0.22266 23.324 2.8008 35.531-0.61719 10.277-2.8008 17.473-9.043 24.277-16.969l-0.003906 0.003906c3.293-4.125 7.7383-7.1758 12.77-8.7656-10.332-7-22.961-22.094-32.871-10.219-0.55859 0.67188-1.7656 0-1.2031-0.67188 7.6445-11.199 19.824-6.6367 28.727 0.42188 9.8555 7.7578 14.895 9.2383 27.355 7.5898v-0.003906c3.7969-0.82812 7.6797-1.1875 11.566-1.0625-3.7539-9.8281-4.8438-20.578-9.8281-29.934-5.6016-10.387-15.344-17.836-20.859-28.309-10.527-20.047-9.1836-44.801-14.449-66.277-0.14062-0.61719 0.69922-1.2617 1.2305-0.86719 7.168 5.3477 7.7578 17.387 9.043 25.594 2.2695 14.422 3.4453 29.566 11.508 42.223 4.1016 5.8945 8.5352 11.547 13.273 16.941 0.69922-8.2031 6.6367-15.203 12.543-20.945 14.477-14 10.949-31.527 11.93-49.672 0.046875-0.36719 0.31641-0.66406 0.67578-0.75 0.35938-0.089843 0.73828 0.054688 0.94922 0.35938 6.832 10.246 5.9062 28.309 1.8477 39.508-0.97656 2.7031-2.2969 5.2734-3.9219 7.6445 2.8164-0.85156 5.7188-1.3945 8.6523-1.625 10.414-0.86719 21.59 1.707 31.051-4.0898 9.4648-5.7969 12.18-15.062 14.449-24.723 0.22266-1.0625 2.0703-1.1484 2.2695 0 1.9023 11.453-4.8438 22.793-14.559 28.758-13.609 8.3984-33.797 0.19531-46.816 7.7852l-1.6797 1.707h-0.003907c-4.5156 4.25-7.8789 9.5781-9.7695 15.48-0.65234 2.5-1.5898 4.9141-2.8008 7.1992 1.6211 2.4727 2.9844 5.1094 4.0586 7.8672 3.9219 10.191 5.207 21.336 11.199 30.52h0.003907c0.78125 0.84766 1.4609 1.7852 2.0156 2.8008 0.44922 0.55859 0.92578 1.1211 1.3984 1.6523 9.1016 10.078 20.133 17.359 28.422 28.422v-0.003907c4.2891 5.7227 8.1094 11.777 11.422 18.117 2.3398-19.441 14.855-36.168 32.844-43.906 8.707-3.7227 16.969-6.4961 22.203-15.062 6.5234-10.695 4.5352-22.734 0.72656-33.906-5.6016-16.043-12.402-31.332-17.137-47.602h0.003906c-3.4844-12.195-6.207-24.594-8.1484-37.129-2.8008-6.0742-12.879-11.984-17.668-14.195-5.6016-2.8008-12.098-3.6953-17.836-6.3828-8.5664-3.9766-16.801-12.375-14.867-22.398v-0.003907c0.03125-0.30859 0.25781-0.56641 0.5625-0.63281 0.30078-0.070313 0.61719 0.0625 0.78125 0.32812 5.9062 9.1016 9.8828 15.176 20.832 18.703 6.4297 1.625 12.645 4.0117 18.508 7.1094 2.8008 1.6719 5.4766 3.543 8.0078 5.6016-2.4102-18.004-3.418-35.953-3.9219-54.266-0.55859-19.348-3.0781-37.66-16.941-52.164-7.8398-8.2031-16.129-16.016-14.758-28.309l0.003906 0.003906c0.058594-0.38281 0.33984-0.69141 0.71484-0.78125 0.375-0.09375 0.76562 0.050781 0.99219 0.35938 4.5352 8.3984 7.7578 15.512 14.953 22.203 4.9336 4.2383 9.1406 9.25 12.461 14.84 1.2695 2.3594 2.375 4.8008 3.3047 7.3086 1.2852-4.8203 2.9023-9.543 4.8438-14.141 3.043-8.1523 6.9766-15.945 11.73-23.238 0.30859-0.42187 1.0938-0.42187 1.2031 0.16797 1.3984 6.9727-3.9766 14.953-6.2422 21.391-2.9961 8.3984-4.3125 17.836-8.3984 25.676 1.5664 7.168 2.5039 14.457 2.7969 21.785 1.5977 38.137 4.2031 74.312 15.598 111.16l0.16797 0.53125c6.0742-23.156 26.738-43.062 25.898-67.648-0.86719-25.34-16.102-49.867-1.9336-74.594l0.003906 0.003907c0.18359-0.27344 0.51953-0.40234 0.83984-0.32031 0.32031 0.082032 0.55469 0.35547 0.58594 0.68359 0.28125 16.605-1.625 31.5 2.8008 47.965 0.75781 2.8008 1.5391 5.7383 2.2695 8.5977 3.5273-5.6016 12.57-9.1562 17.723-10.527 10.863-2.8008 17.949-2.6328 24.668-13.719 4.3672-7.168 5.6016-15.82 10.277-22.566v-0.007812c0.44141-0.6875 1.2422-1.0625 2.0547-0.96094s1.4922 0.66016 1.7539 1.4375c2.8008 11.648-7.4766 30.605-17.305 37.184-5.1797 3.4727-11.199 3.8633-17.023 4.957-4.875 0.63281-9.5625 2.2617-13.777 4.7891-2.8008 1.8477-4.5078 4.1445-7.0547 5.8516 1.6914 7.1016 1.9297 14.473 0.69922 21.672-2.4648 12.461-9.4648 23.238-14.895 34.523-5.1523 10.695-7.9805 22.961-13.719 33.32 3.8359 9.5469 8.3984 19.797 11.73 30.102 5.2188-4.2773 10.844-8.0273 16.797-11.203 10.922-6.8047 22.934-13.074 32.703-21.504 17.277-14.926 22.23-39.199 33.066-58.801l0.003906 0.003906c7.5039-12.652 15.703-24.879 24.555-36.625-20.973-22.398 19.797-58.406-2.6602-81.199-0.42187-0.42187 0-1.0352 0.42188-1.1758 11.789-3.7539 13.105 15.934 13.273 23.324 0.16797 8.6523-2.4375 15.539-5.2344 23.52-4.0039 11.48-2.3789 18.535-0.89453 28.617 2.8008-3.8906 5.3477-7.8125 7.8672-11.816 9.7383-15.766 15.34-34.414 33.094-43.148 0.44922-0.23047 1.0039-0.097656 1.3008 0.3125 0.29687 0.41016 0.25781 0.97656-0.097657 1.3359-15.371 14-21.195 35.559-32.762 52.445-13.441 19.602-28 37.996-38.387 59.527-4.8711 10.078-8.3984 20.441-13.609 29.934 14.531-7.1133 33.461 0.50391 50.398 5.4023 20.215-9.8555 23.102-29.316 32.367-47.824 5.207-10.414 12.543-20.188 24.277-23.043 1.1602-0.25391 2.3281 0.39062 2.7266 1.5078 0.39844 1.1172-0.097656 2.3555-1.1562 2.8906-11.594 6.7188-17.164 16.156-21.785 26.543 8.3984-5.293 19.012-7.3906 29.176-9.9961 14-3.5273 23.27-9.2695 29.875-22.398 3.5859-7.1133 6.2148-14.449 12.348-19.797 2.1562-1.875 5.6016 0.39062 3.9219 2.9961-8.8477 13.551-13.355 30.801-28.477 38.977-15.734 8.3984-36.148 6.1875-49.953 17.387-2.1562 5.125-4.3398 10.359-7.1406 15.566-4.2812 8.0352-10.16 15.539-18.254 19.266zm-72.492 112.89c-1.2305 0.96875-1.9688 2.4375-2.0156 4.0039-0.007813 0.66797 0.21094 1.3203 0.61719 1.8477v0.14062c0.36328 1.2734 1.3594 2.2695 2.6328 2.6328 3.1094 0.8125 5.6016-2.2969 5.8789-5.207 0.054688-1.707-0.90234-3.2891-2.4453-4.0273-1.5391-0.73828-3.3672-0.5-4.668 0.60938zm1.4844 4.1992h0.22266zm-47.516 86.129c0.53125 1.793-1.3984 3.4453-3.0508 3.4453-0.82812-0.058594-1.5859-0.48047-2.0703-1.1484-0.48828-0.67188-0.65234-1.5195-0.44922-2.3242v-0.19531c0.28906-1.2734 1.4219-2.1797 2.7266-2.1797 1.3086 0 2.4414 0.90625 2.7305 2.1797z"/>
</svg>
