<svg xmlns="http://www.w3.org/2000/svg" x="0px" y="0px" viewBox="0 0 511.999 511.999" fill="currentColor">
	<path d="M145.499,179.633l-3.625-0.39c-5.891-0.643-11.232,3.643-11.869,9.562c-0.638,5.917,3.644,11.23,9.562,11.868l3.625,0.39
		c0.391,0.043,0.781,0.064,1.167,0.064c5.434,0,10.107-4.099,10.702-9.624C155.699,185.584,151.417,180.27,145.499,179.633z"/>
	<path d="M509.982,195.155c-5.822-17.912-22.323-28.583-41.035-26.566l-129.535,13.963c-8.851,0.945-16.884-4.893-18.707-13.598
		L293.951,41.446c-3.869-18.432-19.12-30.818-37.952-30.818s-34.083,12.385-37.952,30.818l-26.754,127.511
		c-1.825,8.703-9.857,14.54-18.707,13.595c-5.901-0.638-11.232,3.643-11.869,9.562c-0.638,5.918,3.644,11.232,9.562,11.869
		c19.885,2.148,38.006-11.013,42.11-30.601l26.754-127.506c2.119-10.094,10.096-13.69,16.857-13.69s14.738,3.596,16.857,13.69
		l26.754,127.504c4.106,19.59,22.222,32.747,42.111,30.603l129.538-13.963c10.266-1.11,16.136,5.37,18.224,11.799
		c2.09,6.432,1.137,15.133-7.81,20.268l-112.999,64.843c-17.353,9.95-24.272,31.23-16.093,49.507l53.311,118.881
		c4.218,9.412-0.125,17.013-5.597,20.988c-5.468,3.971-14.033,5.754-21.675-1.165l-96.597-87.442
		c-14.835-13.432-37.211-13.432-52.048,0l-96.599,87.443c-7.641,6.917-16.206,5.136-21.674,1.164
		c-5.472-3.975-9.815-11.576-5.597-20.987l53.314-118.889c8.177-18.27,1.257-39.549-16.093-49.498L30.325,222.086
		c-8.947-5.134-9.901-13.836-7.81-20.268c2.09-6.429,7.966-12.904,18.227-11.799l67.508,7.277
		c5.914,0.636,11.232-3.643,11.87-9.561c0.638-5.918-3.643-11.232-9.561-11.87l-67.506-7.277
		c-18.727-2.022-35.216,8.654-41.037,26.566c-5.822,17.915,1.243,36.251,17.581,45.626l113.004,64.845
		c7.707,4.42,10.778,13.876,7.146,21.988L86.437,446.497c-7.704,17.189-2.641,36.174,12.598,47.243
		c7.028,5.104,14.986,7.63,22.892,7.63c9.234,0,18.396-3.447,25.916-10.255l96.599-87.443c6.588-5.964,16.525-5.965,23.115,0
		l96.597,87.442c13.96,12.638,33.572,13.693,48.809,2.625c15.24-11.069,20.302-30.056,12.598-47.246l-53.308-118.876
		c-3.635-8.12-0.564-17.576,7.146-21.997l113.002-64.844C508.74,231.406,515.805,213.069,509.982,195.155z"/>
	<path d="M255.999,229.769c-26.18,0-47.479,21.299-47.479,47.479c0,26.186,21.299,47.49,47.479,47.49s47.479-21.305,47.479-47.49
		C303.478,251.068,282.179,229.769,255.999,229.769z M255.999,303.184c-14.295,0-25.925-11.634-25.925-25.936
		c0-14.295,11.63-25.925,25.925-25.925s25.925,11.63,25.925,25.925C281.924,291.55,270.294,303.184,255.999,303.184z"/>
	<path d="M255.999,188.49c-5.951,0-10.777,4.825-10.777,10.777v5.403c0,5.952,4.826,10.777,10.777,10.777
		s10.777-4.825,10.777-10.777v-5.403C266.776,193.315,261.95,188.49,255.999,188.49z"/>
	<path d="M255.999,149.064c-5.951,0-10.777,4.825-10.777,10.777v5.403c0,5.952,4.826,10.777,10.777,10.777
		s10.777-4.825,10.777-10.777v-5.403C266.776,153.889,261.95,149.064,255.999,149.064z"/>
	<path d="M255.999,109.629c-5.951,0-10.777,4.825-10.777,10.777v5.403c0,5.952,4.826,10.777,10.777,10.777
		s10.777-4.825,10.777-10.777v-5.403C266.776,114.454,261.95,109.629,255.999,109.629z"/>
	<path d="M255.999,70.203c-5.951,0-10.777,4.825-10.777,10.777v5.403c0,5.952,4.826,10.777,10.777,10.777
		s10.777-4.825,10.777-10.777V80.98C266.776,75.028,261.95,70.203,255.999,70.203z"/>
	<path d="M190.308,244.574l-5.142-1.67c-5.659-1.84-11.742,1.258-13.581,6.92c-1.839,5.66,1.259,11.741,6.92,13.581l5.142,1.67
		c1.106,0.359,2.228,0.53,3.332,0.53c4.543,0,8.768-2.896,10.248-7.45C199.067,252.493,195.969,246.412,190.308,244.574z"/>
	<path d="M152.803,232.39l-5.142-1.671c-5.658-1.838-11.742,1.258-13.581,6.92c-1.839,5.66,1.259,11.741,6.92,13.581l5.142,1.67
		c1.106,0.359,2.228,0.53,3.332,0.53c4.543,0,8.768-2.896,10.248-7.45C161.562,240.31,158.464,234.23,152.803,232.39z"/>
	<path d="M115.305,220.209l-5.131-1.672c-5.665-1.844-11.743,1.251-13.585,6.911c-1.842,5.66,1.251,11.742,6.91,13.585l5.131,1.67
		c1.109,0.361,2.233,0.532,3.34,0.532c4.54,0,8.764-2.893,10.246-7.444C124.059,228.134,120.965,222.052,115.305,220.209z"/>
	<path d="M77.784,208.006l-5.142-1.66c-5.664-1.83-11.738,1.282-13.567,6.946c-1.828,5.665,1.281,11.739,6.946,13.566l5.142,1.66
		c1.1,0.356,2.216,0.524,3.312,0.524c4.551,0,8.78-2.907,10.255-7.47C86.558,215.908,83.449,209.834,77.784,208.006z"/>
	<path d="M219.678,327.245c-4.815-3.5-11.557-2.435-15.054,2.38l-3.178,4.372c-3.5,4.814-2.436,11.554,2.38,15.055
		c1.913,1.391,4.131,2.061,6.328,2.061c3.331,0,6.617-1.54,8.725-4.44l3.178-4.372
		C225.558,337.486,224.494,330.746,219.678,327.245z"/>
	<path d="M196.479,359.142c-4.819-3.491-11.558-2.416-15.051,2.406l-3.166,4.372c-3.492,4.821-2.414,11.559,2.406,15.051
		c1.91,1.384,4.121,2.05,6.313,2.05c3.338,0,6.628-1.545,8.736-4.455l3.166-4.372C202.376,369.372,201.299,362.633,196.479,359.142
		z"/>
	<path d="M173.324,391.049c-4.815-3.499-11.553-2.437-15.056,2.378l-3.179,4.372c-3.5,4.814-2.437,11.554,2.378,15.055
		c1.914,1.392,4.132,2.062,6.331,2.062c3.33,0,6.616-1.539,8.725-4.439l3.179-4.372C179.202,401.29,178.138,394.55,173.324,391.049
		z"/>
	<path d="M150.159,422.963c-4.808-3.505-11.55-2.451-15.058,2.36l-3.179,4.362c-3.506,4.809-2.449,11.551,2.36,15.057
		c1.915,1.397,4.137,2.069,6.34,2.069c3.326,0,6.608-1.535,8.718-4.429l3.179-4.362
		C156.025,433.211,154.969,426.47,150.159,422.963z"/>
	<path d="M310.552,333.997l-3.178-4.372c-3.498-4.815-10.242-5.879-15.054-2.38c-4.815,3.5-5.88,10.24-2.38,15.055l3.178,4.372
		c2.108,2.901,5.394,4.44,8.725,4.44c2.198,0,4.417-0.67,6.328-2.061C312.987,345.552,314.052,338.813,310.552,333.997z"/>
	<path d="M333.735,365.919l-3.166-4.372c-3.493-4.822-10.231-5.895-15.05-2.406c-4.819,3.492-5.896,10.231-2.404,15.051
		l3.166,4.372c2.108,2.91,5.399,4.455,8.736,4.455c2.192,0,4.404-0.666,6.313-2.05C336.15,377.477,337.228,370.739,333.735,365.919
		z"/>
	<path d="M356.91,397.799l-3.179-4.372c-3.5-4.814-10.243-5.878-15.056-2.378c-4.814,3.5-5.878,10.241-2.378,15.055l3.179,4.372
		c2.109,2.9,5.394,4.439,8.725,4.439c2.199,0,4.418-0.67,6.331-2.062C359.347,409.353,360.411,402.613,356.91,397.799z"/>
	<path d="M380.076,429.685l-3.179-4.362c-3.507-4.81-10.248-5.867-15.058-2.36c-4.81,3.506-5.866,10.248-2.36,15.057l3.179,4.362
		c2.11,2.895,5.391,4.43,8.718,4.43c2.202,0,4.424-0.672,6.34-2.069C382.526,441.236,383.582,434.494,380.076,429.685z"/>
	<path d="M340.413,249.823c-1.84-5.66-7.918-8.762-13.581-6.92l-5.142,1.67c-5.661,1.84-8.759,7.919-6.92,13.581
		c1.48,4.554,5.704,7.45,10.248,7.45c1.103,0,2.226-0.171,3.332-0.53l5.142-1.671C339.155,261.564,342.252,255.485,340.413,249.823
		z"/>
	<path d="M377.917,237.639c-1.84-5.66-7.918-8.76-13.581-6.92l-5.142,1.67c-5.661,1.84-8.759,7.919-6.92,13.581
		c1.48,4.555,5.704,7.45,10.248,7.45c1.103,0,2.226-0.171,3.332-0.53l5.142-1.67C376.659,249.38,379.756,243.301,377.917,237.639z"
		/>
	<path d="M415.409,225.449c-1.843-5.66-7.922-8.751-13.585-6.911l-5.131,1.672c-5.659,1.843-8.753,7.925-6.91,13.584
		c1.481,4.552,5.704,7.444,10.245,7.444c1.106,0,2.23-0.172,3.34-0.532l5.131-1.67
		C414.158,237.191,417.252,231.108,415.409,225.449z"/>
	<path d="M452.921,213.294c-1.828-5.663-7.902-8.776-13.566-6.946l-5.142,1.66c-5.665,1.828-8.775,7.903-6.946,13.566
		c1.473,4.563,5.703,7.47,10.255,7.47c1.097,0,2.213-0.169,3.312-0.524l5.142-1.66C451.639,225.032,454.75,218.957,452.921,213.294
		z"/>
</svg>
